<svg xmlns="http://www.w3.org/2000/svg" width="1439.913" height="344.428" viewBox="0 0 1439.913 344.428"><g transform="translate(-1169.293 21294.215)"><g transform="translate(1169.294 -21316.215)"><path d="M949.978,21682.643a158.5,158.5,0,0,1-31.7-3.2,156.381,156.381,0,0,1-56.237-23.666,157.734,157.734,0,0,1-56.981-69.2,156.414,156.414,0,0,1-9.164-29.521,158.428,158.428,0,0,1-3.2-31.7v-136.525A21.831,21.831,0,0,1,814.552,21367h204.982a71.242,71.242,0,0,0-1.271,35.5H828.2v122.871a121.781,121.781,0,0,0,243.562,0v-68.951a71.251,71.251,0,0,0,35.5-.99v69.941a158.433,158.433,0,0,1-3.2,31.7,156.4,156.4,0,0,1-23.665,56.236,157.758,157.758,0,0,1-69.2,56.982,156.421,156.421,0,0,1-29.523,9.164A158.513,158.513,0,0,1,949.978,21682.643Zm137.619-246.287a49.081,49.081,0,0,1-15.835-2.607v-31.25h-30.888a49.337,49.337,0,0,1,1.907-35.5h42.629a21.826,21.826,0,0,1,21.848,21.842v43.42A48.764,48.764,0,0,1,1087.6,21436.355Z" transform="translate(-792.706 -21316.215)" fill="#2698d5"/><g transform="translate(223.898)"><rect width="98" height="98" rx="49" transform="translate(22.102 22)" fill="#16be5d"/><path d="M18.891,56V37.108H0V18.891H18.891V0H37.108V18.891H56V37.108H37.108V56Z" transform="translate(42.102 43)" fill="#fff"/></g><g transform="translate(68.808 112.785)"><path d="M1530.291-1230.106a27.451,27.451,0,0,1-39.706-.922,27.063,27.063,0,0,1-5.052-7.97,61.087,61.087,0,0,0-13.121-20.044l-1.541-1.541a62.856,62.856,0,0,0-20.558-13.661,27.4,27.4,0,0,1-9.861-6.916,27.545,27.545,0,0,1,0-36.959,27.43,27.43,0,0,1,23.561-8.787,56.962,56.962,0,0,0,35.069-7.456c12.324-7.107,28.745-11.158,43.21,3.307,14.32,14.32,10.223,30.787,3.142,43.171a58.664,58.664,0,0,0-7.259,35.431,27.372,27.372,0,0,1-7.885,22.35" transform="translate(-1433.333 1399.029)" fill="#2698d5"/><path d="M1521.579-1397.655c-9.94,9.94-24.642,11.362-32.823,3.175s-6.771-22.883,3.175-32.823,24.635-11.369,32.823-3.181,6.765,22.89-3.175,32.829" transform="translate(-1458.682 1447.096)" fill="#2698d5"/><path d="M1657.337-1420.517c-9.946,9.94-24.642,11.363-32.829,3.175s-6.765-22.883,3.175-32.823,24.642-11.363,32.829-3.175,6.765,22.883-3.175,32.823" transform="translate(-1527.372 1458.662)" fill="#2698d5"/><path d="M1682.7-1236.537c-9.94,9.946-11.362,24.642-3.175,32.829s22.883,6.765,32.83-3.175,11.362-24.642,3.175-32.829-22.883-6.765-32.829,3.175" transform="translate(-1555.208 1350.57)" fill="#2698d5"/><path d="M1705.563-1372.285c-9.94,9.94-11.363,24.635-3.175,32.823s22.883,6.771,32.829-3.175,11.363-24.635,3.175-32.823-22.883-6.771-32.829,3.175" transform="translate(-1566.778 1419.256)" fill="#2698d5"/></g></g><path d="M-375.888-146.778v29.813h-63.239v37.492h61.432v29.813h-61.432v60.98H-470.3v-158.1ZM-279.9-40.627v-60.98h29.135V11.319H-279.9V-1.329q-10.389,15.81-33.652,15.81-18.52,0-30.716-12.422-11.97-12.648-11.97-34.33v-69.337H-327.1v65.723q0,11.067,5.985,17.165t16.374,6.1q11.519,0,18.181-7.114T-279.9-40.627Zm84.921-60.98v19.423a30.093,30.093,0,0,1,13.1-16.148,40.584,40.584,0,0,1,21.23-5.533v32.523a33.188,33.188,0,0,0-23.94,5.42q-10.389,7-10.389,23.263V11.319h-29.135V-101.607Zm80.4,0v19.423a30.093,30.093,0,0,1,13.1-16.148,40.584,40.584,0,0,1,21.23-5.533v32.523a33.188,33.188,0,0,0-23.94,5.42q-10.389,7-10.389,23.263V11.319H-143.71V-101.607ZM-12.264-25.721l25.07-75.887H43.974L2.869,11.319Q-5.94,35.711-20.507,46.665t-36.25,9.825v-27.1q11.519.226,18.52-4.969T-27.17,7.705l-46.3-109.313h31.845Zm146.353,40.2q-35.459,0-58.948-23.715-23.263-23.489-23.263-58.5,0-35.233,23.263-58.5Q98.631-149.94,134.09-149.94a80.582,80.582,0,0,1,39.637,10.05,73.583,73.583,0,0,1,28.345,27.215L175.2-97.09a41.73,41.73,0,0,0-16.713-16.6,49.615,49.615,0,0,0-24.392-5.985q-23.037,0-37.266,14.455-14,14.68-14,37.492,0,22.585,14,37.266,14.229,14.455,37.266,14.455a50.258,50.258,0,0,0,24.505-5.985,40.462,40.462,0,0,0,16.6-16.374l26.877,15.584A73.583,73.583,0,0,1,173.727,4.431,80.582,80.582,0,0,1,134.09,14.481ZM306.416-88.282v-13.325h29.135V11.319H306.416V-2.006q-13.1,16.487-36.814,16.487-22.585,0-38.847-17.165-16.036-17.391-16.036-42.46,0-24.844,16.036-42.235,16.262-17.391,38.847-17.391Q293.317-104.769,306.416-88.282ZM252.663-22.107q8.808,8.808,22.359,8.808t22.359-8.808q9.034-9.034,9.034-23.037t-9.034-22.811q-8.808-9.034-22.359-9.034t-22.359,9.034q-8.808,8.808-8.808,22.811T252.663-22.107Zm138.448-79.5v19.423a30.092,30.092,0,0,1,13.1-16.148,40.583,40.583,0,0,1,21.23-5.533v32.523a33.188,33.188,0,0,0-23.94,5.42q-10.389,7-10.389,23.263V11.319H361.976V-101.607ZM547.854-33.174H462.707q5.646,21.23,31.845,21.23,16.713,0,25.3-11.293L543.337-9.685Q526.624,14.481,494.1,14.481q-28.006,0-44.945-16.939T432.217-45.144q0-25.3,16.713-42.46,16.487-17.165,42.912-17.165,25.07,0,40.879,17.165,16.262,17.165,16.262,42.46A80.314,80.314,0,0,1,547.854-33.174Zm-85.6-22.585h57.593Q517.364-66.826,509.8-72.7a28.421,28.421,0,0,0-17.955-5.872q-11.744,0-19.423,5.985T462.255-55.759Z" transform="translate(2060.223 -21120.836)"/><path d="M-430.841-4.131v-8.363h16.778V-19h-16.778v-7.847h19v-6.711h-27.309V2.58h27.98V-4.131ZM-356.4-33.557-367.55-7.745l-11-25.812h-9.034L-371.99,2.58h8.26l15.642-36.137Zm41.815,29.425v-8.363h16.778V-19h-16.778v-7.847h19v-6.711H-322.9V2.58h27.98V-4.131Zm80.533,6.711-8.1-11.615a11.748,11.748,0,0,0,7.434-11.409c0-8.1-6.04-13.112-15.694-13.112h-15.642V2.58h8.363V-7.487H-250l6.969,10.067Zm-9.137-23.024c0,3.923-2.581,6.3-7.692,6.3h-6.814v-12.6h6.814C-245.77-26.742-243.188-24.419-243.188-20.444Zm68.143-13.112h-8.208L-192.907-17.5l-9.654-16.055h-8.879l13.99,23.231V2.58h8.363v-12.8Zm78.158,0h-15.642V2.58h8.363V-7.383h7.279c9.654,0,15.694-5.007,15.694-13.061C-81.193-28.549-87.233-33.557-96.887-33.557ZM-97.351-14.2h-6.814V-26.742h6.814c5.111,0,7.692,2.323,7.692,6.3C-89.659-16.521-92.241-14.2-97.351-14.2ZM-27.866,2.58h8.776L-35.248-33.557h-8.26L-59.614,2.58h8.57l3.2-7.744h16.778ZM-45.16-11.513l5.73-13.835,5.73,13.835ZM51.531-33.557,43.117-7.951l-8.26-25.605H27.113L18.6-8.158l-8.157-25.4H1.766L13.64,2.58h8.931l8.208-24.47,7.95,24.47h8.983L59.533-33.557ZM164.691,2.58l-.1-36.137h-6.866L144.4-11.1,130.877-33.557H123.96V2.58h7.847V-18.637l10.583,17.4h3.768L156.792-19.1l.052,21.682Zm57.767,0h8.776L215.075-33.557h-8.26L190.709,2.58h8.57l3.2-7.744h16.778ZM205.164-11.513l5.73-13.835,5.73,13.835ZM262.879,2.58h8.363V-26.742h11.564v-6.814h-31.49v6.814h11.564Zm54.618,0h8.363V-26.742h11.564v-6.814h-31.49v6.814H317.5Zm54.928-6.711v-8.363H389.2V-19H372.424v-7.847h19v-6.711H364.113V2.58h27.98V-4.131ZM452.958,2.58l-8.1-11.615a11.748,11.748,0,0,0,7.434-11.409c0-8.1-6.04-13.112-15.694-13.112H420.951V2.58h8.363V-7.487h7.692L443.975,2.58ZM443.82-20.444c0,3.923-2.581,6.3-7.692,6.3h-6.814v-12.6h6.814C441.239-26.742,443.82-24.419,443.82-20.444ZM492.966,3.2C503.291,3.2,508.3-1.963,508.3-8c0-13.267-21.011-8.673-21.011-15.332,0-2.271,1.91-4.13,6.866-4.13a20.41,20.41,0,0,1,10.015,2.839l2.581-6.35a24.241,24.241,0,0,0-12.545-3.2c-10.273,0-15.229,5.111-15.229,11.254,0,13.422,21.011,8.776,21.011,15.539,0,2.22-2.013,3.872-6.969,3.872A21.256,21.256,0,0,1,481.092-7.28l-2.839,6.3C481.454,1.5,487.236,3.2,492.966,3.2Z" transform="translate(2018.479 -20976.582)" opacity="0.4"/></g></svg>